<svg width="32" height="32" viewBox="0 0 32 32" fill="none" xmlns="http://www.w3.org/2000/svg">
<path d="M18.5315 30H16.0142L16.5997 21.4623C16.8204 21.4897 17.0451 21.5041 17.273 21.5041C17.5008 21.5041 17.7253 21.4897 17.9458 21.4623L18.5315 30Z" fill="#FF8000"/>
<path d="M24.9995 27.5511L22.8193 28.8313L19.1444 21.1712C19.5751 21.0124 19.9807 20.8006 20.3535 20.5432L24.9995 27.5511Z" fill="#FF8000"/>
<path d="M14.192 20.5428C14.5648 20.8003 14.9703 21.0122 15.401 21.171L11.7264 28.8309L9.54646 27.5508L14.192 20.5428Z" fill="#FF8000"/>
<path d="M12.4188 18.533C12.6375 18.9521 12.907 19.3396 13.2192 19.6867L6.40754 24.3584L5.14887 22.141L12.4188 18.533Z" fill="#FF8000"/>
<path d="M11.7825 15.7718C11.7813 15.8204 11.7807 15.8692 11.7807 15.9181C11.7807 16.3653 11.8325 16.8003 11.9301 17.2171L4 17.7799V15.2195L11.7825 15.7718Z" fill="#FF8000"/>
<path d="M12.6404 12.9157C12.3786 13.3327 12.1698 13.7875 12.0235 14.2701L5.14887 10.8585L6.40754 8.64126L12.6404 12.9157Z" fill="#FF8000"/>
<path d="M25 5.4485L20.8622 11.6898C20.4857 11.3588 20.0645 11.0793 19.609 10.8612L22.8199 4.16833L25 5.4485Z" fill="#FF8000"/>
<path d="M14.9371 10.8612C14.4817 11.0792 14.0602 11.3585 13.6837 11.6894L9.54646 5.44869L11.7264 4.16851L14.9371 10.8612Z" fill="#FF8000"/>
<path d="M18.0248 10.384C17.779 10.3498 17.5281 10.3318 17.273 10.3318C17.0178 10.3318 16.7667 10.3498 16.5207 10.384L16.0142 3H18.5315L18.0248 10.384Z" fill="#FF8000"/>
</svg>
