<svg  viewBox="0 0 247 246" fill="none" xmlns="http://www.w3.org/2000/svg">
<path d="M134.936 246H111.56L116.998 168.212C119.047 168.462 121.133 168.593 123.25 168.593C125.365 168.593 127.449 168.461 129.497 168.212L134.936 246Z" fill="#FF8000"/>
<path d="M194.995 223.688L174.751 235.352L140.626 165.56C144.626 164.113 148.392 162.183 151.854 159.838L194.995 223.688Z" fill="#FF8000"/>
<path d="M94.6402 159.835C98.102 162.18 101.867 164.111 105.866 165.558L71.7452 235.349L51.5028 223.685L94.6402 159.835Z" fill="#FF8000"/>
<path d="M78.1748 141.523C80.2057 145.342 82.7082 148.872 85.607 152.035L22.3557 194.599L10.6681 174.396L78.1748 141.523Z" fill="#FF8000"/>
<path d="M72.2659 116.365C72.2545 116.808 72.249 117.252 72.249 117.698C72.2491 121.773 72.7306 125.736 73.6371 129.534L0 134.661V111.334L72.2659 116.365Z" fill="#FF8000"/>
<path d="M80.2324 90.3428C77.8014 94.1423 75.8628 98.2859 74.5044 102.683L10.6681 71.5993L22.3557 51.3981L80.2324 90.3428Z" fill="#FF8000"/>
<path d="M195 22.3086L156.578 79.1733C153.082 76.1581 149.17 73.6111 144.941 71.6247L174.756 10.6447L195 22.3086Z" fill="#FF8000"/>
<path d="M101.558 71.6247C97.3297 73.6109 93.4161 76.155 89.9199 79.17L51.5028 22.3103L71.7452 10.6464L101.558 71.6247Z" fill="#FF8000"/>
<path d="M130.23 67.2767C127.948 66.9648 125.618 66.8009 123.25 66.8009C120.88 66.8009 118.548 66.9645 116.264 67.2767L111.56 0H134.936L130.23 67.2767Z" fill="#FF8000"/>
</svg>
