<svg  viewBox="0 0 837 250" fill="none" xmlns="http://www.w3.org/2000/svg">
<path d="M115.35 249.818C81.5947 249.818 53.8749 238.178 32.1908 214.897C10.7303 191.393 0 161.621 0 125.581C0 89.3166 10.5067 59.3206 31.5201 35.5923C52.5336 11.8641 80.3652 0 115.015 0C143.629 0 166.543 7.61094 183.756 22.8328C201.192 37.8308 211.252 57.194 213.935 80.9222H165.648C163.413 68.6104 157.824 58.8729 148.882 51.7096C140.164 44.5464 128.875 40.9648 115.015 40.9648C93.778 40.9648 77.5709 48.7996 66.3935 64.4691C55.2161 80.1387 49.6275 100.509 49.6275 125.581C49.6275 150.428 55.5515 170.687 67.3995 186.356C79.471 202.026 95.4546 209.86 115.35 209.86C129.434 209.86 141.17 206.055 150.559 198.444C159.948 190.609 165.425 180.312 166.99 167.553H214.605C213.264 190.162 204.434 209.077 188.115 224.299C170.008 241.312 145.753 249.818 115.35 249.818Z" fill="#FF8000"/>
<path d="M380.413 223.963C363.647 241.2 342.075 249.818 315.697 249.818C289.318 249.818 267.746 241.2 250.98 223.963C234.214 206.503 225.831 184.789 225.831 158.822C225.831 132.856 234.214 111.254 250.98 94.0175C267.746 76.5571 289.318 67.8269 315.697 67.8269C342.075 67.8269 363.647 76.5571 380.413 94.0175C397.179 111.254 405.562 132.856 405.562 158.822C405.562 184.789 397.179 206.503 380.413 223.963ZM315.697 214.897C329.333 214.897 339.951 209.86 347.552 199.787C355.376 189.49 359.288 175.835 359.288 158.822C359.288 141.81 355.376 128.155 347.552 117.858C339.951 107.56 329.333 102.412 315.697 102.412C301.837 102.412 291.106 107.56 283.506 117.858C275.905 127.931 272.105 141.586 272.105 158.822C272.105 175.835 275.905 189.49 283.506 199.787C291.106 209.86 301.837 214.897 315.697 214.897Z" fill="#FF8000"/>
<path d="M531.716 244.781C529.481 241.871 527.693 235.491 526.351 225.642H525.681C520.763 233.029 514.503 238.737 506.903 242.767C499.302 246.796 488.684 248.811 475.047 248.811C456.94 248.811 442.409 244.222 431.456 235.044C420.502 225.866 415.025 212.882 415.025 196.094C415.025 178.633 421.061 165.874 433.132 157.815C445.204 149.533 462.193 143.824 484.101 140.69C500.196 138.452 511.15 136.213 516.962 133.975C522.775 131.513 525.681 127.259 525.681 121.215C525.681 114.948 523.222 110.023 518.304 106.441C513.386 102.636 506.232 100.733 496.843 100.733C476.053 100.733 464.988 108.792 463.646 124.909H423.073C423.743 108.568 430.338 95.0248 442.856 84.28C455.375 73.5351 473.482 68.1627 497.178 68.1627C545.465 68.1627 569.608 89.3166 569.608 131.624V219.262C569.608 232.246 571.62 240.192 575.643 243.102V244.781H531.716ZM486.113 216.912C498.631 216.912 508.468 213.666 515.621 207.174C522.998 200.683 526.687 192.96 526.687 184.006V158.151C521.769 161.061 511.15 164.419 494.831 168.224C481.865 171.134 472.7 174.492 467.335 178.297C461.97 181.879 459.287 187.475 459.287 195.086C459.287 209.637 468.229 216.912 486.113 216.912Z" fill="#FF8000"/>
<path d="M639.844 72.5278V96.0322H640.85C652.698 77.2287 669.688 67.8269 691.819 67.8269C709.479 67.8269 723.786 73.8709 734.74 85.9588C745.694 97.823 751.171 113.269 751.171 132.296V244.781H705.567V139.012C705.567 129.61 702.884 121.999 697.519 116.179C692.378 110.359 685.112 107.449 675.724 107.449C665.664 107.449 657.281 111.142 650.575 118.529C644.092 125.916 640.85 135.43 640.85 147.07V244.781H595.247V72.5278H639.844Z" fill="#FF8000"/>
<path d="M809.693 3.45109H802.671V21.5693H797.926V3.45109H791V0H809.693V3.45109ZM818.561 0L824.456 15.5778L830.328 0H836.535V21.5693H831.742V15.5778L832.269 5.36837L826.062 21.5693H822.827L816.644 5.39233L817.123 15.5778V21.5693H812.402V0H818.561Z" fill="#FF8000"/>
</svg>
